<?xml version="1.0" encoding="utf-8"?>
<!-- Generator: Adobe Illustrator 21.0.2, SVG Export Plug-In . SVG Version: 6.00 Build 0)  -->
<svg version="1.1" id="Layer_1" xmlns="http://www.w3.org/2000/svg" xmlns:xlink="http://www.w3.org/1999/xlink" x="0px" y="0px"
	 viewBox="0 0 32 32" style="enable-background:new 0 0 32 32;" xml:space="preserve">
<style type="text/css">
	.st0{fill:url(#SVGID_1_);}
	.st1{fill:#FFFFFF;}
</style>
<linearGradient id="SVGID_1_" gradientUnits="userSpaceOnUse" x1="16" y1="0" x2="16" y2="32">
	<stop  offset="0" style="stop-color:#CA1A37"/>
	<stop  offset="1" style="stop-color:#960A2B"/>
</linearGradient>
<rect class="st0" width="32" height="32"/>
<path class="st1" d="M17.3,23.6c0,0.4,0.3,0.6,0.7,0.6v0.6h-4.4v-0.6c0.3,0,0.6-0.2,0.6-0.6V10.2H8.6c-0.4,0-0.8,0.2-0.8,0.8H7.2V7
	h0.6c0,0.6,0.5,0.8,0.8,0.8H23c0.4,0,0.8-0.2,0.8-0.8h0.6v3.9h-0.6c0-0.6-0.4-0.8-0.8-0.8h-5.6V23.6z"/>
</svg>
